<svg width="96" height="67" viewBox="0 0 96 67" fill="none" xmlns="http://www.w3.org/2000/svg">
<path d="M93.4263 10.5422C92.3358 6.43626 89.123 3.20258 85.0436 2.10518C77.6495 0.111084 48 0.111084 48 0.111084C48 0.111084 18.3507 0.111084 10.9564 2.10518C6.87708 3.20275 3.66423 6.43626 2.57378 10.5422C0.592529 17.9843 0.592529 33.5118 0.592529 33.5118C0.592529 33.5118 0.592529 49.0392 2.57378 56.4814C3.66423 60.5873 6.87708 63.6863 10.9564 64.7836C18.3507 66.7777 48 66.7777 48 66.7777C48 66.7777 77.6493 66.7777 85.0436 64.7836C89.123 63.6863 92.3358 60.5873 93.4263 56.4814C95.4075 49.0392 95.4075 33.5118 95.4075 33.5118C95.4075 33.5118 95.4075 17.9843 93.4263 10.5422V10.5422ZM38.303 47.6095V19.414L63.0841 33.5121L38.303 47.6095V47.6095Z" fill="url(#paint0_linear)"/>
<defs>
<linearGradient id="paint0_linear" x1="0.604157" y1="0.111087" x2="94.5278" y2="66.7778" gradientUnits="userSpaceOnUse">
<stop stop-color="#58FCEC"/>
<stop offset="1" stop-color="#DABFFF"/>
</linearGradient>
</defs>
</svg>
