<svg width="100" height="115" viewBox="0 0 100 115" fill="none" xmlns="http://www.w3.org/2000/svg">
<g clip-path="url(#clip0)">
<path d="M50.0223 31.4732C35.8259 31.4732 24.375 42.9241 24.375 57.1205C24.375 71.317 35.8259 82.7679 50.0223 82.7679C64.2188 82.7679 75.6696 71.317 75.6696 57.1205C75.6696 42.9241 64.2188 31.4732 50.0223 31.4732ZM50.0223 73.7946C40.8482 73.7946 33.3482 66.317 33.3482 57.1205C33.3482 47.9241 40.8259 40.4464 50.0223 40.4464C59.2188 40.4464 66.6964 47.9241 66.6964 57.1205C66.6964 66.317 59.1964 73.7946 50.0223 73.7946ZM82.7009 30.4241C82.7009 33.75 80.0223 36.4062 76.7188 36.4062C73.3929 36.4062 70.7366 33.7277 70.7366 30.4241C70.7366 27.1205 73.4152 24.442 76.7188 24.442C80.0223 24.442 82.7009 27.1205 82.7009 30.4241ZM99.6875 36.4955C99.308 28.4821 97.4777 21.3839 91.6071 15.5357C85.7589 9.68749 78.6607 7.85714 70.6473 7.45535C62.3884 6.9866 37.6339 6.9866 29.375 7.45535C21.3839 7.83482 14.2857 9.66517 8.41518 15.5134C2.54465 21.3616 0.736609 28.4598 0.334824 36.4732C-0.133926 44.7321 -0.133926 69.4866 0.334824 77.7455C0.714288 85.7589 2.54465 92.8571 8.41518 98.7054C14.2857 104.554 21.3616 106.384 29.375 106.786C37.6339 107.254 62.3884 107.254 70.6473 106.786C78.6607 106.406 85.7589 104.576 91.6071 98.7054C97.4554 92.8571 99.2857 85.7589 99.6875 77.7455C100.156 69.4866 100.156 44.7545 99.6875 36.4955ZM89.0179 86.6071C87.2768 90.9821 83.9062 94.3527 79.5089 96.1161C72.9241 98.7277 57.2991 98.125 50.0223 98.125C42.7455 98.125 27.0982 98.7054 20.5357 96.1161C16.1607 94.375 12.7902 91.0045 11.0268 86.6071C8.41518 80.0223 9.01786 64.3973 9.01786 57.1205C9.01786 49.8437 8.4375 34.1964 11.0268 27.6339C12.7679 23.2589 16.1384 19.8884 20.5357 18.125C27.1205 15.5134 42.7455 16.1161 50.0223 16.1161C57.2991 16.1161 72.9464 15.5357 79.5089 18.125C83.8839 19.8661 87.2545 23.2366 89.0179 27.6339C91.6295 34.2187 91.0268 49.8437 91.0268 57.1205C91.0268 64.3973 91.6295 80.0446 89.0179 86.6071Z" fill="url(#paint0_linear)"/>
</g>
<defs>
<linearGradient id="paint0_linear" x1="7" y1="7" x2="100" y2="107" gradientUnits="userSpaceOnUse">
<stop stop-color="#58FCEC"/>
<stop offset="1" stop-color="#DABFFF"/>
</linearGradient>
<clipPath id="clip0">
<rect width="100" height="114.286" fill="white"/>
</clipPath>
</defs>
</svg>
