<svg width="100" height="100" viewBox="0 0 100 100" fill="none" xmlns="http://www.w3.org/2000/svg">
<path d="M89.7207 29.632C89.7842 30.5203 89.7842 31.4088 89.7842 32.2971C89.7842 59.3908 69.1625 90.6092 31.4721 90.6092C19.8603 90.6092 9.07363 87.2461 0 81.4088C1.6498 81.599 3.23594 81.6625 4.94922 81.6625C14.5303 81.6625 23.3502 78.4266 30.3934 72.9063C21.3832 72.7158 13.8324 66.8148 11.2309 58.693C12.5 58.8832 13.7689 59.0102 15.1016 59.0102C16.9416 59.0102 18.7818 58.7562 20.4949 58.3123C11.1041 56.4086 4.06074 48.16 4.06074 38.198V37.9443C6.78906 39.4672 9.96191 40.4189 13.3246 40.5457C7.8043 36.8654 4.1877 30.5838 4.1877 23.4771C4.1877 19.6701 5.20273 16.1803 6.97949 13.1346C17.0684 25.5711 32.2334 33.6928 49.2383 34.5813C48.9211 33.0584 48.7307 31.4723 48.7307 29.8859C48.7307 18.5914 57.8678 9.39101 69.2256 9.39101C75.1266 9.39101 80.4565 11.8656 84.2002 15.8631C88.832 14.9748 93.2736 13.2615 97.2078 10.9139C95.6848 15.6729 92.4488 19.6703 88.1977 22.2082C92.3221 21.7643 96.3195 20.6219 99.9996 19.0357C97.2082 23.0965 93.7182 26.7131 89.7207 29.632Z" fill="url(#paint0_linear)"/>
<defs>
<linearGradient id="paint0_linear" x1="2.33606e-06" y1="9" x2="100" y2="91" gradientUnits="userSpaceOnUse">
<stop stop-color="#58FCEC"/>
<stop offset="1" stop-color="#DABFFF"/>
</linearGradient>
</defs>
</svg>
