<svg width="100" height="104" viewBox="0 0 100 104" fill="none" xmlns="http://www.w3.org/2000/svg">
<path d="M67.8428 30.6452C64.9194 12.6411 58.0242 0 50 0C41.9758 0 35.0807 12.6411 32.1573 30.6452H67.8428ZM30.6452 50C30.6452 54.4758 30.8871 58.7702 31.3105 62.9032H68.6694C69.0928 58.7702 69.3347 54.4758 69.3347 50C69.3347 45.5242 69.0928 41.2298 68.6694 37.0968H31.3105C30.8871 41.2298 30.6452 45.5242 30.6452 50ZM96.1089 30.6452C90.3428 16.9556 78.6694 6.37097 64.2541 2.09677C69.1734 8.91129 72.5605 19.1734 74.3347 30.6452H96.1089ZM35.7258 2.09677C21.3307 6.37097 9.6371 16.9556 3.89113 30.6452H25.6653C27.4194 19.1734 30.8065 8.91129 35.7258 2.09677ZM98.2662 37.0968H75.1412C75.5645 41.3306 75.8065 45.6653 75.8065 50C75.8065 54.3347 75.5645 58.6694 75.1412 62.9032H98.246C99.3549 58.7702 99.9799 54.4758 99.9799 50C99.9799 45.5242 99.3549 41.2298 98.2662 37.0968ZM24.1936 50C24.1936 45.6653 24.4355 41.3306 24.8589 37.0968H1.73387C0.645162 41.2298 0 45.5242 0 50C0 54.4758 0.645162 58.7702 1.73387 62.9032H24.8387C24.4355 58.6694 24.1936 54.3347 24.1936 50ZM32.1573 69.3548C35.0807 87.3589 41.9758 100 50 100C58.0242 100 64.9194 87.3589 67.8428 69.3548H32.1573ZM64.2742 97.9032C78.6694 93.629 90.3629 83.0444 96.1291 69.3548H74.3549C72.5807 80.8266 69.1936 91.0887 64.2742 97.9032ZM3.89113 69.3548C9.65726 83.0444 21.3307 93.629 35.746 97.9032C30.8266 91.0887 27.4395 80.8266 25.6653 69.3548H3.89113Z" fill="url(#paint0_linear)"/>
<defs>
<linearGradient id="paint0_linear" x1="0" y1="0" x2="100" y2="100" gradientUnits="userSpaceOnUse">
<stop stop-color="#58FCEC"/>
<stop offset="1" stop-color="#DABFFF"/>
</linearGradient>
</defs>
</svg>
