<svg width="647" height="193" viewBox="0 0 647 193" fill="none" xmlns="http://www.w3.org/2000/svg">
<path d="M169.487 64.2863C169.487 64.2863 264.204 3.77248 329.686 3.77248C329.686 3.77248 408.521 -8.50636 494.271 12.2465C580.021 32.9994 611.696 59.9079 635.47 52.0074L535.591 54.9317L169.487 64.2863Z" fill="black"/>
<path d="M615.929 156.903H38.2733L54.155 93.2708L152.386 67.1541L615.929 79.336V156.903Z" fill="#431515"/>
<path d="M646.335 117.142V137.45C646.335 137.45 629.185 149.891 627.626 159.633C627.626 159.633 603.069 165.87 596.057 165.87C595.418 165.87 594.724 165.87 593.997 165.942C595.092 163.003 595.948 159.98 596.557 156.903C598.277 148.268 598.061 139.359 595.923 130.818C593.786 122.276 589.78 114.316 584.196 107.509C578.611 100.702 571.586 95.2186 563.627 91.4536C555.668 87.6886 546.973 85.7358 538.168 85.7358C529.364 85.7358 520.669 87.6886 512.71 91.4536C504.751 95.2186 497.726 100.702 492.141 107.509C486.556 114.316 482.551 122.276 480.413 130.818C478.276 139.359 478.059 148.268 479.779 156.903C480.606 161.066 481.876 165.128 483.568 169.02H450.269C450.269 169.02 449.962 169.125 449.462 169.343C447.676 170.151 443.468 172.284 442.862 175.636H166.902L161.248 175.588C162.45 173.57 163.529 171.482 164.479 169.335C166.252 165.358 167.569 161.193 168.405 156.919C170.048 148.758 169.962 140.343 168.153 132.217C166.344 124.091 162.853 116.434 157.904 109.74C152.955 103.046 146.658 97.4637 139.42 93.3521C132.181 89.2406 124.161 86.6915 115.877 85.8691C107.593 85.0468 99.2289 85.9695 91.3232 88.5777C83.4176 91.1859 76.1462 95.4217 69.9778 101.012C63.8094 106.603 58.881 113.424 55.5101 121.035C52.1392 128.647 50.4007 136.881 50.4067 145.206C50.4066 149.13 50.7908 153.045 51.5539 156.895C52.8557 163.413 55.2423 169.666 58.6142 175.394C54.672 174.432 46.0688 171.702 46.0688 171.702C46.0688 171.702 9.43414 167.808 0.0795898 159.585L1.49327 158.607L7.48729 154.512L4.75686 144.01C4.42728 143.567 4.1558 143.084 3.94904 142.572C3.222 140.819 2.58383 137.564 5.1527 133.476C9.04639 127.24 7.09954 105.025 7.09954 105.025C7.09954 105.025 60.1087 68.39 164.568 60.1987C164.568 60.1987 167.064 62.1375 172.218 62.5414C175.708 62.8241 180.417 62.396 186.403 60.1987C186.403 60.1987 194.974 64.0924 231.641 43.0487C231.641 43.0487 294.013 0.169614 375.869 4.07946C375.869 4.07946 460.06 -0.993644 531.778 26.6984C562.686 38.6218 586.201 44.9794 602.963 48.3399C618.441 51.45 628.159 52.0236 632.61 52.072H632.707C634.161 52.072 635.026 52.072 635.333 52.072H635.462C635.462 52.072 635.462 61.3539 635.955 72.316V72.3725C636.133 76.1854 636.375 80.2003 636.714 84.1021V84.3444C637.651 95.2096 639.267 105.081 642.07 107.036L646.335 117.142Z" fill="#C10E0E"/>
<path d="M15.5251 104.136C15.5251 104.136 39.0084 85.8146 68.2434 89.7164C68.2434 89.7164 41.6419 110.768 29.6539 109.403L27.6101 107.65L15.4928 108.329C15.4928 108.329 13.6833 105.501 15.5251 104.136Z" fill="black"/>
<path opacity="0.2" d="M38.3218 135.835V146.652C38.3218 146.652 37.5139 156.984 28.1836 157.371L1.52557 158.688L7.51152 154.592L4.78109 144.091C4.45004 143.652 4.17842 143.171 3.97327 142.661C6.39673 140.431 12.108 136.667 23.7245 135.859L38.3218 135.835Z" fill="white"/>
<path opacity="0.2" d="M162.371 90.5L182.833 89.6922C182.833 89.6922 174.553 96.2194 168.704 96.8091C162.855 97.3988 162.371 90.5 162.371 90.5Z" fill="white"/>
<path opacity="0.2" d="M205.444 152.573C205.444 152.573 390.491 126.844 435.22 135.027C435.22 135.027 448.371 135.908 453.347 141.166C458.323 146.425 453.347 143.016 453.347 143.016L205.444 152.573Z" fill="white"/>
<path opacity="0.5" d="M451.691 72.9541C451.691 72.9541 454.034 68.5677 457.831 68.4708L482.485 67.1702C482.485 67.1702 482.097 70.5791 477.711 71.8474L451.691 72.9541Z" fill="black"/>
<path d="M367.508 12.8524L348.589 62.4687L280.377 62.5414H262.815H247.539H234.331H219.37C219.37 62.5414 228.483 55.8526 243.161 47.3301C248.008 44.5028 253.509 41.4815 259.479 38.4441C264.972 35.6329 270.885 32.7894 277.097 30.0913C281.944 27.9586 287.049 25.9067 292.268 23.9922C315.929 15.3405 342.522 9.53224 367.508 12.8524Z" fill="black"/>
<path d="M474.69 49.0831C474.69 49.0831 446.19 53.308 418.991 56.4342C408.594 57.6298 398.391 58.6638 390.038 59.2373L388.875 59.3182C385.644 59.5282 382.647 59.6655 380.102 59.714C376.063 59.7867 373.042 59.6089 371.531 59.1242L379.391 11.6649C379.391 11.6649 389.085 11.7699 403.424 12.4727L406.558 12.6423C409.539 12.812 412.682 13.0059 415.961 13.2321C420.647 13.5552 425.582 13.9429 430.672 14.4115C455.246 16.6653 483.083 20.7125 500.71 27.999C538.217 43.5253 474.69 49.0831 474.69 49.0831Z" fill="black"/>
<path d="M606.041 72.9542V85.6207C606.041 85.6207 585.579 85.9115 589.966 81.824C592.805 79.1097 595.382 76.1346 597.664 72.938L606.041 72.9542Z" fill="black"/>
<path d="M636.698 84.3283L620.081 85.6289V70.4015C620.081 70.4015 627.78 59.5848 635.478 71.5728L635.923 72.2756L636.698 84.3283Z" fill="black"/>
<path opacity="0.2" d="M259.487 38.4926L247.539 62.5737H234.331L243.161 47.3786C248.032 44.5512 253.517 41.5381 259.487 38.4926Z" fill="white"/>
<path opacity="0.2" d="M292.268 24.0407L280.369 62.5495H262.807L277.105 30.1236C281.984 28.0071 287.058 25.9714 292.268 24.0407Z" fill="white"/>
<path opacity="0.2" d="M415.977 13.2724L390.054 59.2455L388.891 59.3263C385.66 59.5363 382.663 59.6737 380.118 59.7221L403.44 12.5212L406.574 12.6908C409.515 12.8524 412.682 13.0463 415.977 13.2724Z" fill="white"/>
<path opacity="0.2" d="M219.823 62.4121L205.023 164.351L328.628 161.645L348.92 62.8564L219.823 62.4121Z" stroke="white" stroke-miterlimit="10"/>
<path opacity="0.5" d="M449.47 169.311C447.684 170.119 443.476 172.251 442.87 175.604H166.902L161.248 175.555C162.45 173.538 163.529 171.45 164.479 169.303L449.47 169.311Z" fill="#18218A"/>
<path d="M110 192.762C136.264 192.762 157.556 171.47 157.556 145.206C157.556 118.941 136.264 97.6492 110 97.6492C83.735 97.6492 62.4433 118.941 62.4433 145.206C62.4433 171.47 83.735 192.762 110 192.762Z" fill="black"/>
<path d="M148.145 145.165C148.162 154.978 144.41 164.423 137.662 171.549C130.915 178.674 121.689 182.936 111.889 183.454C102.09 183.971 92.466 180.705 85.0057 174.33C77.5454 167.955 72.8186 158.958 71.8019 149.198C70.7852 139.438 73.5562 129.66 79.5425 121.884C85.5288 114.108 94.273 108.929 103.969 107.416C113.665 105.903 123.571 108.171 131.642 113.753C139.713 119.335 145.331 127.804 147.337 137.41C147.869 139.961 148.14 142.559 148.145 145.165Z" fill="#43464B"/>
<path d="M120.913 108.466V109.855L110 145.989L101.243 107.868C107.74 106.354 114.52 106.56 120.913 108.466V108.466Z" fill="#1E1C13"/>
<path d="M120.832 181.881C114.581 183.732 107.962 183.96 101.598 182.543L109.992 145.989L120.832 181.881Z" fill="#1E1C13"/>
<path d="M148.145 145.165C148.15 149.151 147.534 153.114 146.319 156.911H146.166L110.032 145.997L147.402 137.418C147.91 139.969 148.159 142.564 148.145 145.165Z" fill="#1E1C13"/>
<path d="M110 145.989L73.8658 156.903H73.5831C71.5707 150.594 71.2118 143.873 72.541 137.386L110 145.989Z" fill="#1E1C13"/>
<path d="M109.943 149.35C112.259 149.35 114.136 147.473 114.136 145.157C114.136 142.842 112.259 140.965 109.943 140.965C107.628 140.965 105.75 142.842 105.75 145.157C105.75 147.473 107.628 149.35 109.943 149.35Z" fill="#0CFDE0"/>
<path d="M537.877 192.762C564.142 192.762 585.434 171.47 585.434 145.206C585.434 118.941 564.142 97.6492 537.877 97.6492C511.613 97.6492 490.321 118.941 490.321 145.206C490.321 171.47 511.613 192.762 537.877 192.762Z" fill="black"/>
<path d="M576.031 145.165C576.048 154.978 572.295 164.423 565.548 171.549C558.801 178.674 549.575 182.936 539.775 183.454C529.976 183.971 520.352 180.705 512.892 174.33C505.431 167.955 500.704 158.958 499.688 149.198C498.671 139.438 501.442 129.66 507.428 121.884C513.415 114.108 522.159 108.929 531.855 107.416C541.55 105.903 551.457 108.171 559.528 113.753C567.599 119.335 573.217 127.804 575.223 137.41C575.755 139.961 576.026 142.559 576.031 145.165Z" fill="#43464B"/>
<path d="M548.791 108.466V109.855L537.877 145.989L529.121 107.868C535.618 106.354 542.398 106.56 548.791 108.466V108.466Z" fill="#1E1C13"/>
<path d="M548.718 181.881C542.467 183.732 535.848 183.96 529.484 182.543L537.877 145.989L548.718 181.881Z" fill="#1E1C13"/>
<path d="M576.031 145.165C576.036 149.151 575.42 153.114 574.205 156.911H574.019L537.877 145.989L575.247 137.41C575.77 139.962 576.032 142.56 576.031 145.165V145.165Z" fill="#1E1C13"/>
<path d="M537.877 145.989L501.744 156.903H501.461C499.448 150.594 499.09 143.873 500.419 137.386L537.877 145.989Z" fill="#1E1C13"/>
<path d="M537.829 149.35C540.144 149.35 542.022 147.473 542.022 145.157C542.022 142.842 540.144 140.965 537.829 140.965C535.513 140.965 533.636 142.842 533.636 145.157C533.636 147.473 535.513 149.35 537.829 149.35Z" fill="#0CFDE0"/>
</svg>
